<?xml version="1.0" encoding="utf-8"?>
<!-- Generator: Adobe Illustrator 22.1.0, SVG Export Plug-In . SVG Version: 6.00 Build 0)  -->
<svg version="1.1" id="Layer_1" xmlns="http://www.w3.org/2000/svg" xmlns:xlink="http://www.w3.org/1999/xlink" x="0px" y="0px"
	 viewBox="0 0 512 512" style="enable-background:new 0 0 512 512;" xml:space="preserve">
<style type="text/css">
	.st0{fill:#ED0744;}
</style>
<path class="st0" d="M8,256C8,119,119,8,256,8s248,111,248,248S393,504,256,504S8,393,8,256z M151.6,284.9l72.4-75.5V392
	c0,13.3,10.7,24,24,24h16c13.3,0,24-10.7,24-24V209.4l72.4,75.5c9.3,9.7,24.8,9.9,34.3,0.4l10.9-11c9.4-9.4,9.4-24.6,0-33.9
	L273,107.7c-9.4-9.4-24.6-9.4-33.9,0L106.3,240.4c-9.4,9.4-9.4,24.6,0,33.9l10.9,11C126.8,294.8,142.3,294.6,151.6,284.9z"/>
</svg>
