<svg viewBox="0 0 115.2 101.8" xmlns="http://www.w3.org/2000/svg"><clipPath id="a"><path d="M0 0h115.2v101.8H0z"/></clipPath><path d="M0 0h115.2v101.8H0z"/><path clip-path="url(#a)" d="M94.2 6.5l19-8.1v-45.6l-19 8.1zm-23 10.2l18.9-8.1V-37l-18.9 8zM48.1 26.9l19-8.1v-45.7l-19 8.1zM25.1 37L44 29v-45.7L25.1-8.6zM2 47.2l19-8.1V-6.5L2 1.6zm92.2 10.2l19-8.1V3.7l-19 8zm-23 10.2l18.9-8.1V13.8l-18.9 8.1zM48.1 77.7l19-8V24l-19 8.1zm-23 10.2L44 79.8V34.2l-18.9 8.1zM2 98.1L21 90V44.4l-19 8zm92.2 10.2l19-8.1V54.5l-19 8.1zm-23 10.1l18.9-8V64.7l-18.9 8.1zm-23.1 10.2l19-8.1V74.9l-19 8.1zm-23 10.2l18.9-8.1V85.1l-18.9 8zM2 149l19-8.1V95.2l-19 8.1z" fill="none" opacity=".15" stroke="#fff" stroke-miterlimit="10" stroke-width=".5"/></svg>