<svg enable-background="new 0 0 115.2 101.8" viewBox="0 0 115.2 101.8" xmlns="http://www.w3.org/2000/svg" xmlns:xlink="http://www.w3.org/1999/xlink"><clipPath id="a"><path d="m0 0h115.2v101.8h-115.2z"/></clipPath><path d="m0 0h115.2v101.8h-115.2z"/><g fill="none" opacity=".15" stroke="#fff" stroke-miterlimit="10" stroke-width=".5"><path clip-path="url(#a)" d="m94.2 6.5 19-8.1v-45.6l-19 8.1z"/><path clip-path="url(#a)" d="m71.2 16.7 18.9-8.1v-45.6l-18.9 8z"/><path clip-path="url(#a)" d="m48.1 26.9 19-8.1v-45.7l-19 8.1z"/><path clip-path="url(#a)" d="m25.1 37 18.9-8v-45.7l-18.9 8.1z"/><path clip-path="url(#a)" d="m2 47.2 19-8.1v-45.6l-19 8.1z"/><path clip-path="url(#a)" d="m94.2 57.4 19-8.1v-45.6l-19 8z"/><path clip-path="url(#a)" d="m71.2 67.6 18.9-8.1v-45.7l-18.9 8.1z"/><path clip-path="url(#a)" d="m48.1 77.7 19-8v-45.7l-19 8.1z"/><path clip-path="url(#a)" d="m25.1 87.9 18.9-8.1v-45.6l-18.9 8.1z"/><path clip-path="url(#a)" d="m2 98.1 19-8.1v-45.6l-19 8z"/><path clip-path="url(#a)" d="m94.2 108.3 19-8.1v-45.7l-19 8.1z"/><path clip-path="url(#a)" d="m71.2 118.4 18.9-8v-45.7l-18.9 8.1z"/><path clip-path="url(#a)" d="m48.1 128.6 19-8.1v-45.6l-19 8.1z"/><path clip-path="url(#a)" d="m25.1 138.8 18.9-8.1v-45.6l-18.9 8z"/><path clip-path="url(#a)" d="m2 149 19-8.1v-45.7l-19 8.1z"/></g></svg>