<?xml version="1.0" encoding="utf-8"?>
<!-- Generator: Adobe Illustrator 22.1.0, SVG Export Plug-In . SVG Version: 6.00 Build 0)  -->
<svg version="1.1" id="Layer_1" xmlns="http://www.w3.org/2000/svg" xmlns:xlink="http://www.w3.org/1999/xlink" x="0px" y="0px"
	 viewBox="0 0 1440 1080" style="enable-background:new 0 0 1440 1080;" xml:space="preserve">
<style type="text/css">
	.st0{fill:none;}
	.st1{fill:none;stroke:#000000;stroke-width:0.5;stroke-miterlimit:10;}
	.st2{fill:url(#TBI_x5F_BG);}
</style>
<pattern  x="-740.3" y="-2424.5" width="115.2" height="101.8" patternUnits="userSpaceOnUse" id="TBI_x5F_BG" viewBox="0 -149.3 115.2 101.8" style="overflow:visible;">
	<g>
		<rect y="-149.3" class="st0" width="115.2" height="101.8"/>
		<polygon class="st1" points="94.2,-142.8 113.2,-150.9 113.2,-196.6 94.2,-188.5 		"/>
		<polygon class="st1" points="71.2,-132.7 90.1,-140.7 90.1,-186.4 71.2,-178.3 		"/>
		<polygon class="st1" points="48.1,-122.5 67.1,-130.6 67.1,-176.2 48.1,-168.1 		"/>
		<polygon class="st1" points="25.1,-112.3 44,-120.4 44,-166 25.1,-158 		"/>
		<polygon class="st1" points="2,-102.1 21,-110.2 21,-155.9 2,-147.8 		"/>
		<polygon class="st1" points="94.2,-92 113.2,-100 113.2,-145.7 94.2,-137.6 		"/>
		<polygon class="st1" points="71.2,-81.8 90.1,-89.9 90.1,-135.5 71.2,-127.4 		"/>
		<polygon class="st1" points="48.1,-71.6 67.1,-79.7 67.1,-125.3 48.1,-117.3 		"/>
		<polygon class="st1" points="25.1,-61.4 44,-69.5 44,-115.2 25.1,-107.1 		"/>
		<polygon class="st1" points="2,-51.3 21,-59.3 21,-105 2,-96.9 		"/>
		<polygon class="st1" points="94.2,-41.1 113.2,-49.1 113.2,-94.8 94.2,-86.7 		"/>
		<polygon class="st1" points="71.2,-30.9 90.1,-39 90.1,-84.6 71.2,-76.6 		"/>
		<polygon class="st1" points="48.1,-20.7 67.1,-28.8 67.1,-74.5 48.1,-66.4 		"/>
		<polygon class="st1" points="25.1,-10.6 44,-18.6 44,-64.3 25.1,-56.2 		"/>
		<polygon class="st1" points="2,-0.4 21,-8.4 21,-54.1 2,-46 		"/>
	</g>
</pattern>
<rect class="st2" width="1440" height="1080"/>
</svg>
