<?xml version="1.0" standalone="no"?>
<!DOCTYPE svg PUBLIC "-//W3C//DTD SVG 20010904//EN"
 "http://www.w3.org/TR/2001/REC-SVG-20010904/DTD/svg10.dtd">
<svg version="1.0" xmlns="http://www.w3.org/2000/svg"
 width="267.000000pt" height="267.000000pt" viewBox="0 0 267.000000 267.000000"
 preserveAspectRatio="xMidYMid meet">
<metadata>
Created by potrace 1.11, written by Peter Selinger 2001-2013
</metadata>
<g transform="translate(0.000000,267.000000) scale(0.100000,-0.100000)"
fill="#000000" stroke="none">
<path d="M1735 2461 l-300 -128 -2 -736 c-1 -406 0 -737 2 -737 4 0 207 85
240 100 11 5 99 43 195 84 l175 75 0 735 c0 405 -2 736 -5 736 -3 0 -140 -58
-305 -129z"/>
<path d="M1190 2005 l-145 -63 -3 -736 c-1 -405 0 -736 3 -736 5 0 144 58 235
98 19 9 37 16 40 17 3 0 78 32 168 70 l162 70 1 35 c2 51 0 112 -3 115 -2 1
-64 -24 -138 -56 -74 -31 -137 -56 -140 -54 -3 2 -5 296 -5 654 0 575 -2 651
-15 650 -8 -1 -80 -29 -160 -64z"/>
<path d="M895 1654 c-33 -14 -78 -33 -100 -43 -22 -10 -64 -29 -92 -41 -32
-13 -53 -29 -54 -39 -3 -59 2 -1446 6 -1449 7 -8 605 251 606 262 2 31 1 138
-2 141 -2 1 -22 -5 -44 -15 -131 -60 -228 -99 -234 -96 -3 2 -6 297 -6 655 0
431 -3 651 -10 651 -5 -1 -37 -12 -70 -26z"/>
</g>
</svg>
